<mxfile host="app.diagrams.net" modified="2023-03-26T09:02:28.857Z" agent="Mozilla/5.0 (Windows NT 10.0; Win64; x64) AppleWebKit/537.36 (KHTML, like Gecko) Chrome/111.0.0.0 Safari/537.36" etag="Tc3ehsOY_Y99gfzdEYOv" version="21.1.1" type="device">
  <diagram id="wnUF4AdLyiSDT9KhIQab" name="Page-1">
    <mxGraphModel dx="1434" dy="699" grid="1" gridSize="10" guides="1" tooltips="1" connect="1" arrows="1" fold="1" page="1" pageScale="1" pageWidth="827" pageHeight="1169" math="0" shadow="0">
      <root>
        <mxCell id="0" />
        <mxCell id="1" parent="0" />
        <mxCell id="WPJqmkYzr5y2CwLYosxu-16" style="edgeStyle=orthogonalEdgeStyle;rounded=0;orthogonalLoop=1;jettySize=auto;html=1;exitX=0.5;exitY=1;exitDx=0;exitDy=0;entryX=0.5;entryY=0;entryDx=0;entryDy=0;fontSize=14;" parent="1" source="WPJqmkYzr5y2CwLYosxu-1" target="WPJqmkYzr5y2CwLYosxu-8" edge="1">
          <mxGeometry relative="1" as="geometry" />
        </mxCell>
        <mxCell id="WPJqmkYzr5y2CwLYosxu-1" value="&lt;font style=&quot;font-size: 14px;&quot;&gt;AI&lt;/font&gt;" style="rounded=0;whiteSpace=wrap;html=1;" parent="1" vertex="1">
          <mxGeometry x="135" y="30" width="50" height="30" as="geometry" />
        </mxCell>
        <mxCell id="WPJqmkYzr5y2CwLYosxu-13" style="edgeStyle=orthogonalEdgeStyle;rounded=0;orthogonalLoop=1;jettySize=auto;html=1;exitX=1;exitY=0.5;exitDx=0;exitDy=0;entryX=0;entryY=0.5;entryDx=0;entryDy=0;fontSize=14;" parent="1" target="WPJqmkYzr5y2CwLYosxu-8" edge="1">
          <mxGeometry relative="1" as="geometry">
            <mxPoint x="80" y="100" as="sourcePoint" />
          </mxGeometry>
        </mxCell>
        <mxCell id="WPJqmkYzr5y2CwLYosxu-14" style="edgeStyle=orthogonalEdgeStyle;rounded=0;orthogonalLoop=1;jettySize=auto;html=1;exitX=1;exitY=0.5;exitDx=0;exitDy=0;entryX=0;entryY=0.5;entryDx=0;entryDy=0;fontSize=14;" parent="1" source="WPJqmkYzr5y2CwLYosxu-4" target="WPJqmkYzr5y2CwLYosxu-8" edge="1">
          <mxGeometry relative="1" as="geometry" />
        </mxCell>
        <mxCell id="WPJqmkYzr5y2CwLYosxu-4" value="- Q1&lt;br&gt;- Q2&lt;br&gt;- Q3" style="rounded=0;whiteSpace=wrap;html=1;fontSize=14;" parent="1" vertex="1">
          <mxGeometry x="30" y="169" width="50" height="60" as="geometry" />
        </mxCell>
        <mxCell id="WPJqmkYzr5y2CwLYosxu-17" style="edgeStyle=orthogonalEdgeStyle;rounded=0;orthogonalLoop=1;jettySize=auto;html=1;exitX=1;exitY=0.5;exitDx=0;exitDy=0;fontSize=14;" parent="1" source="WPJqmkYzr5y2CwLYosxu-8" target="WPJqmkYzr5y2CwLYosxu-9" edge="1">
          <mxGeometry relative="1" as="geometry" />
        </mxCell>
        <mxCell id="WPJqmkYzr5y2CwLYosxu-8" value="aidocx" style="rounded=0;whiteSpace=wrap;html=1;fontSize=14;" parent="1" vertex="1">
          <mxGeometry x="130" y="109" width="60" height="40" as="geometry" />
        </mxCell>
        <mxCell id="WPJqmkYzr5y2CwLYosxu-9" value="Document" style="verticalLabelPosition=bottom;verticalAlign=top;html=1;shape=mxgraph.basic.layered_rect;dx=10;outlineConnect=0;whiteSpace=wrap;fontSize=14;" parent="1" vertex="1">
          <mxGeometry x="240" y="99" width="100" height="60" as="geometry" />
        </mxCell>
        <mxCell id="WPJqmkYzr5y2CwLYosxu-10" value="Catalogue&lt;br&gt;Tree" style="text;html=1;strokeColor=none;fillColor=none;align=center;verticalAlign=middle;whiteSpace=wrap;rounded=0;fontSize=14;" parent="1" vertex="1">
          <mxGeometry x="70" y="340" width="60" height="30" as="geometry" />
        </mxCell>
        <mxCell id="WPJqmkYzr5y2CwLYosxu-12" value="Question&lt;br&gt;List" style="text;html=1;strokeColor=none;fillColor=none;align=center;verticalAlign=middle;whiteSpace=wrap;rounded=0;fontSize=14;" parent="1" vertex="1">
          <mxGeometry x="25" y="229" width="60" height="30" as="geometry" />
        </mxCell>
        <mxCell id="9HtaQU1gGKdFQZF2fQGx-1" value="" style="shape=image;verticalLabelPosition=bottom;labelBackgroundColor=default;verticalAlign=top;aspect=fixed;imageAspect=0;image=data:image/svg+xml,PHN2ZyB4bWxucz0iaHR0cDovL3d3dy53My5vcmcvMjAwMC9zdmciIHZpZXdCb3g9IjAgMCA1MTIgNTEyIj48cGF0aCBkPSJNNDAgNDhDMjYuNyA0OCAxNiA1OC43IDE2IDcydjQ4YzAgMTMuMyAxMC43IDI0IDI0IDI0SDg4YzEzLjMgMCAyNC0xMC43IDI0LTI0VjcyYzAtMTMuMy0xMC43LTI0LTI0LTI0SDQwek0xOTIgNjRjLTE3LjcgMC0zMiAxNC4zLTMyIDMyczE0LjMgMzIgMzIgMzJINDgwYzE3LjcgMCAzMi0xNC4zIDMyLTMycy0xNC4zLTMyLTMyLTMySDE5MnptMCAxNjBjLTE3LjcgMC0zMiAxNC4zLTMyIDMyczE0LjMgMzIgMzIgMzJINDgwYzE3LjcgMCAzMi0xNC4zIDMyLTMycy0xNC4zLTMyLTMyLTMySDE5MnptMCAxNjBjLTE3LjcgMC0zMiAxNC4zLTMyIDMyczE0LjMgMzIgMzIgMzJINDgwYzE3LjcgMCAzMi0xNC4zIDMyLTMycy0xNC4zLTMyLTMyLTMySDE5MnpNMTYgMjMydjQ4YzAgMTMuMyAxMC43IDI0IDI0IDI0SDg4YzEzLjMgMCAyNC0xMC43IDI0LTI0VjIzMmMwLTEzLjMtMTAuNy0yNC0yNC0yNEg0MGMtMTMuMyAwLTI0IDEwLjctMjQgMjR6TTQwIDM2OGMtMTMuMyAwLTI0IDEwLjctMjQgMjR2NDhjMCAxMy4zIDEwLjcgMjQgMjQgMjRIODhjMTMuMyAwIDI0LTEwLjcgMjQtMjRWMzkyYzAtMTMuMy0xMC43LTI0LTI0LTI0SDQweiIvPjwvc3ZnPg==;" vertex="1" parent="1">
          <mxGeometry x="70" y="270" width="60" height="60" as="geometry" />
        </mxCell>
        <mxCell id="9HtaQU1gGKdFQZF2fQGx-2" value="" style="shape=image;verticalLabelPosition=bottom;labelBackgroundColor=default;verticalAlign=top;aspect=fixed;imageAspect=0;image=data:image/svg+xml,PHN2ZyB4bWxucz0iaHR0cDovL3d3dy53My5vcmcvMjAwMC9zdmciIHZpZXdCb3g9IjAgMCAzODQgNTEyIj48cGF0aCBkPSJNMTkyIDBjLTQxLjggMC03Ny40IDI2LjctOTAuNSA2NEg2NEMyOC43IDY0IDAgOTIuNyAwIDEyOFY0NDhjMCAzNS4zIDI4LjcgNjQgNjQgNjRIMzIwYzM1LjMgMCA2NC0yOC43IDY0LTY0VjEyOGMwLTM1LjMtMjguNy02NC02NC02NEgyODIuNUMyNjkuNCAyNi43IDIzMy44IDAgMTkyIDB6bTAgNjRhMzIgMzIgMCAxIDEgMCA2NCAzMiAzMiAwIDEgMSAwLTY0ek0xMDUuOCAyMjkuM2M3LjktMjIuMyAyOS4xLTM3LjMgNTIuOC0zNy4zaDU4LjNjMzQuOSAwIDYzLjEgMjguMyA2My4xIDYzLjFjMCAyMi42LTEyLjEgNDMuNS0zMS43IDU0LjhMMjE2IDMyOC40Yy0uMiAxMy0xMC45IDIzLjYtMjQgMjMuNmMtMTMuMyAwLTI0LTEwLjctMjQtMjRWMzE0LjVjMC04LjYgNC42LTE2LjUgMTIuMS0yMC44bDQ0LjMtMjUuNGM0LjctMi43IDcuNi03LjcgNy42LTEzLjFjMC04LjQtNi44LTE1LjEtMTUuMS0xNS4xSDE1OC42Yy0zLjQgMC02LjQgMi4xLTcuNSA1LjNsLS40IDEuMmMtNC40IDEyLjUtMTguMiAxOS0zMC42IDE0LjZzLTE5LTE4LjItMTQuNi0zMC42bC40LTEuMnpNMTYwIDQxNmEzMiAzMiAwIDEgMSA2NCAwIDMyIDMyIDAgMSAxIC02NCAweiIvPjwvc3ZnPg==;" vertex="1" parent="1">
          <mxGeometry x="220" y="271.33" width="44" height="58.67" as="geometry" />
        </mxCell>
      </root>
    </mxGraphModel>
  </diagram>
</mxfile>
